<svg xmlns="http://www.w3.org/2000/svg" xmlns:xlink="http://www.w3.org/1999/xlink" width="2048" zoomAndPan="magnify" viewBox="0 0 1536 599.999999" height="800" preserveAspectRatio="xMidYMid meet" version="1.2"><defs><clipPath id="4fe31d244e"><path d="M 406 449 L 608 449 L 608 599.867188 L 406 599.867188 Z M 406 449 "/></clipPath><clipPath id="9e74230d76"><path d="M 545 446 L 709 446 L 709 599.867188 L 545 599.867188 Z M 545 446 "/></clipPath><clipPath id="40957f2162"><path d="M 661 413 L 820 413 L 820 599.867188 L 661 599.867188 Z M 661 413 "/></clipPath><clipPath id="f9c7b55cb2"><path d="M 792 446 L 951 446 L 951 599.867188 L 792 599.867188 Z M 792 446 "/></clipPath><clipPath id="5ff1de16ad"><path d="M 892 446 L 1055 446 L 1055 599.867188 L 892 599.867188 Z M 892 446 "/></clipPath><clipPath id="f69ecb0bb6"><path d="M 1004 446 L 1124 446 L 1124 599.867188 L 1004 599.867188 Z M 1004 446 "/></clipPath><clipPath id="2fb6a36cd3"><path d="M 1066 449 L 1225 449 L 1225 599.867188 L 1066 599.867188 Z M 1066 449 "/></clipPath><clipPath id="1f43c1c12d"><path d="M 1202 446 L 1356 446 L 1356 599.867188 L 1202 599.867188 Z M 1202 446 "/></clipPath><clipPath id="7a16344272"><path d="M 1302 446 L 1465 446 L 1465 599.867188 L 1302 599.867188 Z M 1302 446 "/></clipPath><clipPath id="78ff380e61"><path d="M 1405 446 L 1536 446 L 1536 599.867188 L 1405 599.867188 Z M 1405 446 "/></clipPath></defs><g id="bee73d5e0e"><path style=" stroke:none;fill-rule:evenodd;fill:#ff9900;fill-opacity:1;" d="M 199.871094 569.621094 L 109.992188 537.367188 L 109.992188 405.632812 L 199.871094 436.257812 L 199.871094 569.621094 M 216.355469 569.621094 L 306.234375 537.371094 L 306.234375 405.632812 L 216.355469 436.257812 L 216.355469 569.621094 M 119.230469 395.78125 L 210.191406 370.171875 L 294.539062 397.367188 L 210.191406 426.007812 L 119.230469 395.78125 M 92.863281 385.578125 L 2.988281 353.335938 L 2.988281 221.589844 L 92.863281 252.214844 L 92.863281 385.578125 M 109.351562 385.578125 L 199.234375 353.335938 L 199.234375 221.589844 L 109.351562 252.214844 L 109.351562 385.578125 M 12.222656 211.730469 L 103.191406 186.128906 L 187.539062 213.324219 L 103.191406 241.964844 L 12.222656 211.738281 M 302.589844 385.578125 L 212.703125 353.335938 L 212.703125 221.589844 L 302.589844 252.214844 L 302.589844 385.578125 M 319.074219 385.578125 L 408.957031 353.335938 L 408.957031 221.589844 L 319.074219 252.214844 L 319.074219 385.578125 M 221.953125 211.730469 L 312.914062 186.128906 L 397.257812 213.324219 L 312.914062 241.964844 L 221.953125 211.738281 M 409.59375 201.523438 L 319.710938 169.292969 L 319.710938 37.546875 L 409.59375 68.164062 L 409.59375 201.523438 M 426.082031 201.523438 L 515.957031 169.292969 L 515.957031 37.546875 L 426.074219 68.164062 L 426.074219 201.523438 M 328.953125 27.695312 L 419.921875 2.085938 L 504.261719 29.277344 L 419.921875 57.921875 L 328.953125 27.695312 M 619.324219 201.523438 L 529.441406 169.292969 L 529.441406 37.546875 L 619.324219 68.164062 L 619.324219 201.523438 M 635.804688 201.523438 L 725.6875 169.292969 L 725.6875 37.546875 L 635.804688 68.164062 L 635.804688 201.523438 M 538.675781 27.695312 L 629.644531 2.085938 L 713.988281 29.277344 L 629.644531 57.914062 L 538.675781 27.6875 "/><path style=" stroke:none;fill-rule:evenodd;fill:#ffffff;fill-opacity:1;" d="M 573.597656 483.796875 L 543.410156 588.6875 L 530.292969 588.6875 L 506.78125 510.78125 L 485.234375 588.6875 L 471.859375 588.6875 L 440.460938 483.796875 L 456.6875 483.796875 L 479.542969 561.960938 L 501.300781 483.796875 L 513.269531 483.796875 L 536.925781 562.214844 L 560.417969 483.796875 Z M 573.597656 483.796875 "/><path style=" stroke:none;fill-rule:evenodd;fill:#ffffff;fill-opacity:1;" d="M 573.597656 483.796875 L 543.410156 588.6875 L 530.292969 588.6875 L 506.78125 510.78125 L 485.234375 588.6875 L 471.859375 588.6875 L 440.460938 483.796875 L 456.6875 483.796875 L 479.542969 561.960938 L 501.300781 483.796875 L 513.269531 483.796875 L 536.925781 562.214844 L 560.417969 483.796875 Z M 573.597656 483.796875 "/><g clip-rule="nonzero" clip-path="url(#4fe31d244e)"><path style="fill:none;stroke-width:1;stroke-linecap:butt;stroke-linejoin:miter;stroke:#000000;stroke-opacity:1;stroke-miterlimit:4;" d="M 95.640693 80.689871 L 90.607281 98.179154 L 88.420143 98.179154 L 84.49984 85.189199 L 80.90715 98.179154 L 78.677026 98.179154 L 73.441704 80.689871 L 76.147293 80.689871 L 79.958175 93.722813 L 83.586036 80.689871 L 85.581684 80.689871 L 89.526087 93.765149 L 93.443134 80.689871 Z M 95.640693 80.689871 " transform="matrix(5.997423,0,0,5.997423,0.000000768,-0.13438)"/></g><path style=" stroke:none;fill-rule:evenodd;fill:#ffffff;fill-opacity:1;" d="M 657.121094 557.398438 L 672.316406 560.515625 C 669.550781 569.484375 664.160156 576.914062 656.152344 582.785156 C 648.128906 588.664062 638.703125 591.601562 627.847656 591.601562 C 613.542969 591.601562 601.96875 586.5625 593.121094 576.476562 C 584.269531 566.398438 579.847656 553.167969 579.847656 536.816406 C 579.847656 520.113281 584.449219 506.617188 593.636719 496.328125 C 602.824219 486.035156 614.371094 480.890625 628.265625 480.890625 C 641.957031 480.890625 652.957031 485.625 661.289062 495.101562 C 669.613281 504.578125 673.882812 518.757812 674.09375 537.636719 L 597.96875 537.636719 C 597.96875 553.5 601.277344 564.191406 607.910156 569.742188 C 614.539062 575.277344 621.550781 578.046875 628.9375 578.046875 C 642.269531 578.046875 651.667969 571.160156 657.121094 557.398438 Z M 656.230469 525.480469 C 656.09375 519.601562 655.128906 514.371094 653.328125 509.800781 C 651.53125 505.238281 648.496094 501.347656 644.214844 498.125 C 639.929688 494.910156 634.777344 493.304688 628.769531 493.304688 C 620.691406 493.304688 613.835938 496.207031 608.203125 502.023438 C 602.574219 507.839844 599.417969 515.648438 598.730469 525.472656 L 656.230469 525.472656 Z M 656.230469 525.480469 "/><path style=" stroke:none;fill-rule:evenodd;fill:#ffffff;fill-opacity:1;" d="M 657.121094 557.398438 L 672.316406 560.515625 C 669.550781 569.484375 664.160156 576.914062 656.152344 582.785156 C 648.128906 588.664062 638.703125 591.601562 627.847656 591.601562 C 613.542969 591.601562 601.96875 586.5625 593.121094 576.476562 C 584.269531 566.398438 579.847656 553.167969 579.847656 536.816406 C 579.847656 520.113281 584.449219 506.617188 593.636719 496.328125 C 602.824219 486.035156 614.371094 480.890625 628.265625 480.890625 C 641.957031 480.890625 652.957031 485.625 661.289062 495.101562 C 669.613281 504.578125 673.882812 518.757812 674.09375 537.636719 L 597.96875 537.636719 C 597.96875 553.5 601.277344 564.191406 607.910156 569.742188 C 614.539062 575.277344 621.550781 578.046875 628.9375 578.046875 C 642.269531 578.046875 651.667969 571.160156 657.121094 557.398438 Z M 656.230469 525.480469 C 656.09375 519.601562 655.128906 514.371094 653.328125 509.800781 C 651.53125 505.238281 648.496094 501.347656 644.214844 498.125 C 639.929688 494.910156 634.777344 493.304688 628.769531 493.304688 C 620.691406 493.304688 613.835938 496.207031 608.203125 502.023438 C 602.574219 507.839844 599.417969 515.648438 598.730469 525.472656 L 656.230469 525.472656 Z M 656.230469 525.480469 "/><g clip-rule="nonzero" clip-path="url(#9e74230d76)"><path style="fill:none;stroke-width:1;stroke-linecap:butt;stroke-linejoin:miter;stroke:#000000;stroke-opacity:1;stroke-miterlimit:4;" d="M 109.567248 92.962069 L 112.100889 93.481824 C 111.639753 94.977258 110.740929 96.216071 109.40572 97.195007 C 108.067906 98.175246 106.496268 98.66504 104.686245 98.66504 C 102.301106 98.66504 100.371241 97.824835 98.895998 96.143123 C 97.420103 94.462714 96.682807 92.256688 96.682807 89.530257 C 96.682807 86.745206 97.450064 84.49489 98.981972 82.77931 C 100.51388 81.063078 102.439186 80.205287 104.755937 80.205287 C 107.038818 80.205287 108.872939 80.994689 110.262208 82.574795 C 111.650174 84.154901 112.362069 86.519197 112.39724 89.667034 L 99.704287 89.667034 C 99.704287 92.31205 100.255957 94.094717 101.361901 95.020245 C 102.467193 95.943168 103.636315 96.404954 104.867964 96.404954 C 107.090924 96.404954 108.658003 95.256675 109.567248 92.962069 Z M 109.418747 87.640122 C 109.395951 86.659883 109.235074 85.787764 108.934815 85.025717 C 108.635207 84.264974 108.12913 83.616258 107.415282 83.078918 C 106.700782 82.54288 105.841689 82.275187 104.839957 82.275187 C 103.493024 82.275187 102.349955 82.759119 101.41075 83.728936 C 100.472195 84.698754 99.945928 86.000746 99.831295 87.638819 L 109.418747 87.638819 Z M 109.418747 87.640122 " transform="matrix(5.997423,0,0,5.997423,0.000000768,-0.13438)"/></g><path style=" stroke:none;fill-rule:evenodd;fill:#ffffff;fill-opacity:1;" d="M 703.414062 588.6875 L 695.558594 588.6875 L 695.558594 447.070312 L 711.898438 447.070312 L 711.898438 501.285156 C 719.359375 487.683594 729.644531 480.890625 742.761719 480.890625 C 754.769531 480.890625 764.832031 485.632812 772.949219 495.132812 C 781.0625 504.625 785.121094 518.414062 785.121094 536.503906 C 785.121094 552.097656 781.128906 565.171875 773.152344 575.746094 C 765.164062 586.316406 754.78125 591.601562 741.996094 591.601562 C 727.757812 591.601562 716.84375 584.84375 709.242188 571.328125 Z M 711.898438 547.5625 C 712.660156 558.332031 715.964844 566.140625 721.808594 571.011719 C 727.648438 575.871094 733.828125 578.304688 740.320312 578.304688 C 748.621094 578.304688 755.316406 574.699219 760.394531 567.492188 C 765.480469 560.289062 768.011719 550.417969 768.011719 537.875 C 768.011719 524.375 765.566406 513.753906 760.652344 506.03125 C 755.742188 498.304688 748.929688 494.4375 740.21875 494.4375 C 733.375 494.4375 727.207031 497.195312 721.707031 502.683594 C 716.207031 508.1875 712.9375 515.296875 711.898438 524.011719 Z M 711.898438 547.5625 "/><path style=" stroke:none;fill-rule:evenodd;fill:#ffffff;fill-opacity:1;" d="M 703.414062 588.6875 L 695.558594 588.6875 L 695.558594 447.070312 L 711.898438 447.070312 L 711.898438 501.285156 C 719.359375 487.683594 729.644531 480.890625 742.761719 480.890625 C 754.769531 480.890625 764.832031 485.632812 772.949219 495.132812 C 781.0625 504.625 785.121094 518.414062 785.121094 536.503906 C 785.121094 552.097656 781.128906 565.171875 773.152344 575.746094 C 765.164062 586.316406 754.78125 591.601562 741.996094 591.601562 C 727.757812 591.601562 716.84375 584.84375 709.242188 571.328125 Z M 711.898438 547.5625 C 712.660156 558.332031 715.964844 566.140625 721.808594 571.011719 C 727.648438 575.871094 733.828125 578.304688 740.320312 578.304688 C 748.621094 578.304688 755.316406 574.699219 760.394531 567.492188 C 765.480469 560.289062 768.011719 550.417969 768.011719 537.875 C 768.011719 524.375 765.566406 513.753906 760.652344 506.03125 C 755.742188 498.304688 748.929688 494.4375 740.21875 494.4375 C 733.375 494.4375 727.207031 497.195312 721.707031 502.683594 C 716.207031 508.1875 712.9375 515.296875 711.898438 524.011719 Z M 711.898438 547.5625 "/><g clip-rule="nonzero" clip-path="url(#40957f2162)"><path style="fill:none;stroke-width:1;stroke-linecap:butt;stroke-linejoin:miter;stroke:#000000;stroke-opacity:1;stroke-miterlimit:4;" d="M 117.286059 98.179154 L 115.976251 98.179154 L 115.976251 74.566146 L 118.700729 74.566146 L 118.700729 83.605837 C 119.944753 81.337935 121.659682 80.205287 123.84682 80.205287 C 125.848982 80.205287 127.526786 80.995992 128.880232 82.580005 C 130.233026 84.162716 130.909749 86.461881 130.909749 89.478151 C 130.909749 92.078226 130.244099 94.258199 128.914101 96.021326 C 127.582148 97.783802 125.850936 98.66504 123.719161 98.66504 C 121.345094 98.66504 119.525302 97.538254 118.25783 95.284682 Z M 118.700729 91.322042 C 118.827737 93.117735 119.378754 94.419727 120.353131 95.231925 C 121.326857 96.042168 122.357247 96.447942 123.439744 96.447942 C 124.823802 96.447942 125.940167 95.846772 126.786885 94.645084 C 127.634905 93.444047 128.056961 91.798158 128.056961 89.706765 C 128.056961 87.455798 127.649234 85.684855 126.829872 84.397192 C 126.011161 83.108878 124.875256 82.46407 123.422809 82.46407 C 122.281694 82.46407 121.253258 82.923903 120.336197 83.83901 C 119.419136 84.756722 118.87398 85.942127 118.700729 87.395225 Z M 118.700729 91.322042 " transform="matrix(5.997423,0,0,5.997423,0.000000768,-0.13438)"/></g><path style=" stroke:none;fill-rule:evenodd;fill:#ffffff;fill-opacity:1;" d="M 826.761719 561.507812 L 842.339844 558.285156 C 845.804688 571.460938 856.75 578.046875 875.167969 578.046875 C 881.945312 578.046875 887.703125 576.53125 892.40625 573.488281 C 897.117188 570.453125 899.46875 566.171875 899.46875 560.648438 C 899.46875 552.433594 893.476562 547.21875 881.488281 545.011719 L 859.402344 540.808594 C 850.746094 539.148438 843.867188 535.890625 838.746094 531.046875 C 833.628906 526.199219 831.070312 519.792969 831.070312 511.828125 C 831.070312 503.042969 834.558594 495.683594 841.546875 489.765625 C 848.527344 483.84375 857.9375 480.890625 869.765625 480.890625 C 892.519531 480.890625 906.5625 489.78125 911.882812 507.566406 L 896.9375 510.78125 C 892.648438 499.890625 883.839844 494.4375 870.5 494.4375 C 863.863281 494.4375 858.417969 495.804688 854.164062 498.519531 C 849.917969 501.246094 847.789062 505.046875 847.789062 509.941406 C 847.789062 517.648438 853.222656 522.5 864.085938 524.503906 L 884.503906 528.261719 C 905.886719 532.136719 916.566406 542.511719 916.566406 559.359375 C 916.566406 568.992188 912.589844 576.78125 904.632812 582.699219 C 896.675781 588.636719 886.082031 591.601562 872.859375 591.601562 C 848.011719 591.601562 832.640625 581.566406 826.761719 561.507812 Z M 826.761719 561.507812 "/><path style=" stroke:none;fill-rule:evenodd;fill:#ffffff;fill-opacity:1;" d="M 826.761719 561.507812 L 842.339844 558.285156 C 845.804688 571.460938 856.75 578.046875 875.167969 578.046875 C 881.945312 578.046875 887.703125 576.53125 892.40625 573.488281 C 897.117188 570.453125 899.46875 566.171875 899.46875 560.648438 C 899.46875 552.433594 893.476562 547.21875 881.488281 545.011719 L 859.402344 540.808594 C 850.746094 539.148438 843.867188 535.890625 838.746094 531.046875 C 833.628906 526.199219 831.070312 519.792969 831.070312 511.828125 C 831.070312 503.042969 834.558594 495.683594 841.546875 489.765625 C 848.527344 483.84375 857.9375 480.890625 869.765625 480.890625 C 892.519531 480.890625 906.5625 489.78125 911.882812 507.566406 L 896.9375 510.78125 C 892.648438 499.890625 883.839844 494.4375 870.5 494.4375 C 863.863281 494.4375 858.417969 495.804688 854.164062 498.519531 C 849.917969 501.246094 847.789062 505.046875 847.789062 509.941406 C 847.789062 517.648438 853.222656 522.5 864.085938 524.503906 L 884.503906 528.261719 C 905.886719 532.136719 916.566406 542.511719 916.566406 559.359375 C 916.566406 568.992188 912.589844 576.78125 904.632812 582.699219 C 896.675781 588.636719 886.082031 591.601562 872.859375 591.601562 C 848.011719 591.601562 832.640625 581.566406 826.761719 561.507812 Z M 826.761719 561.507812 "/><g clip-rule="nonzero" clip-path="url(#f9c7b55cb2)"><path style="fill:none;stroke-width:1;stroke-linecap:butt;stroke-linejoin:miter;stroke:#000000;stroke-opacity:1;stroke-miterlimit:4;" d="M 137.852836 93.647259 L 140.450306 93.109919 C 141.028028 95.306827 142.853031 96.404954 145.924012 96.404954 C 147.054054 96.404954 148.014102 96.152242 148.798293 95.644862 C 149.583787 95.138786 149.975882 94.424937 149.975882 93.503969 C 149.975882 92.13424 148.976755 91.264726 146.97785 90.896729 L 143.295278 90.195907 C 141.85195 89.919095 140.704973 89.375893 139.85109 88.568255 C 138.997859 87.759965 138.571244 86.691798 138.571244 85.363753 C 138.571244 83.898931 139.152874 82.671842 140.318088 81.68509 C 141.481999 80.697686 143.051033 80.205287 145.023234 80.205287 C 148.817181 80.205287 151.158682 81.687695 152.045782 84.653162 L 149.553826 85.189199 C 148.838675 83.373315 147.369945 82.46407 145.145682 82.46407 C 144.039087 82.46407 143.131145 82.692033 142.421856 83.144701 C 141.71387 83.599323 141.358899 84.233059 141.358899 85.049165 C 141.358899 86.334222 142.264888 87.143163 144.076213 87.477291 L 147.48067 88.103863 C 151.046003 88.749973 152.826716 90.479883 152.826716 93.289033 C 152.826716 94.895191 152.163671 96.193926 150.836929 97.180678 C 149.510187 98.170687 147.743804 98.66504 145.539081 98.66504 C 141.396025 98.66504 138.833075 96.991795 137.852836 93.647259 Z M 137.852836 93.647259 " transform="matrix(5.997423,0,0,5.997423,0.000000768,-0.13438)"/></g><path style=" stroke:none;fill-rule:evenodd;fill:#ffffff;fill-opacity:1;" d="M 1003.472656 557.398438 L 1018.667969 560.515625 C 1015.910156 569.484375 1010.519531 576.914062 1002.5 582.785156 C 994.488281 588.664062 985.046875 591.601562 974.203125 591.601562 C 959.894531 591.601562 948.3125 586.5625 939.472656 576.476562 C 930.621094 566.398438 926.207031 553.167969 926.207031 536.816406 C 926.207031 520.113281 930.792969 506.617188 940 496.328125 C 949.1875 486.035156 960.726562 480.890625 974.625 480.890625 C 988.304688 480.890625 999.316406 485.625 1007.644531 495.101562 C 1015.976562 504.578125 1020.238281 518.757812 1020.445312 537.636719 L 944.316406 537.636719 C 944.316406 553.5 947.632812 564.191406 954.261719 569.742188 C 960.894531 575.277344 967.90625 578.046875 975.292969 578.046875 C 988.621094 578.046875 998.019531 571.160156 1003.472656 557.398438 Z M 1002.582031 525.480469 C 1002.453125 519.601562 1001.480469 514.371094 999.6875 509.800781 C 997.886719 505.238281 994.851562 501.347656 990.570312 498.125 C 986.289062 494.910156 981.128906 493.304688 975.128906 493.304688 C 967.046875 493.304688 960.191406 496.207031 954.554688 502.023438 C 948.929688 507.839844 945.761719 515.648438 945.078125 525.472656 L 1002.582031 525.472656 Z M 1002.582031 525.480469 "/><path style=" stroke:none;fill-rule:evenodd;fill:#ffffff;fill-opacity:1;" d="M 1003.472656 557.398438 L 1018.667969 560.515625 C 1015.910156 569.484375 1010.519531 576.914062 1002.5 582.785156 C 994.488281 588.664062 985.046875 591.601562 974.203125 591.601562 C 959.894531 591.601562 948.3125 586.5625 939.472656 576.476562 C 930.621094 566.398438 926.207031 553.167969 926.207031 536.816406 C 926.207031 520.113281 930.792969 506.617188 940 496.328125 C 949.1875 486.035156 960.726562 480.890625 974.625 480.890625 C 988.304688 480.890625 999.316406 485.625 1007.644531 495.101562 C 1015.976562 504.578125 1020.238281 518.757812 1020.445312 537.636719 L 944.316406 537.636719 C 944.316406 553.5 947.632812 564.191406 954.261719 569.742188 C 960.894531 575.277344 967.90625 578.046875 975.292969 578.046875 C 988.621094 578.046875 998.019531 571.160156 1003.472656 557.398438 Z M 1002.582031 525.480469 C 1002.453125 519.601562 1001.480469 514.371094 999.6875 509.800781 C 997.886719 505.238281 994.851562 501.347656 990.570312 498.125 C 986.289062 494.910156 981.128906 493.304688 975.128906 493.304688 C 967.046875 493.304688 960.191406 496.207031 954.554688 502.023438 C 948.929688 507.839844 945.761719 515.648438 945.078125 525.472656 L 1002.582031 525.472656 Z M 1002.582031 525.480469 "/><g clip-rule="nonzero" clip-path="url(#5ff1de16ad)"><path style="fill:none;stroke-width:1;stroke-linecap:butt;stroke-linejoin:miter;stroke:#000000;stroke-opacity:1;stroke-miterlimit:4;" d="M 167.317316 92.962069 L 169.850956 93.481824 C 169.391123 94.977258 168.4923 96.216071 167.155137 97.195007 C 165.819277 98.175246 164.245033 98.66504 162.436964 98.66504 C 160.051174 98.66504 158.120006 97.824835 156.646065 96.143123 C 155.170171 94.462714 154.434178 92.256688 154.434178 89.530257 C 154.434178 86.745206 155.198829 84.49489 156.733994 82.77931 C 158.265902 81.063078 160.189905 80.205287 162.507307 80.205287 C 164.788235 80.205287 166.62431 80.994689 168.012927 82.574795 C 169.402196 84.154901 170.112788 86.519197 170.147308 89.667034 L 157.453704 89.667034 C 157.453704 92.31205 158.006676 94.094717 159.111968 95.020245 C 160.217912 95.943168 161.387034 96.404954 162.618683 96.404954 C 164.840992 96.404954 166.408071 95.256675 167.317316 92.962069 Z M 167.168815 87.640122 C 167.147321 86.659883 166.985142 85.787764 166.686185 85.025717 C 166.385926 84.264974 165.879849 83.616258 165.166001 83.078918 C 164.452153 82.54288 163.591757 82.275187 162.591327 82.275187 C 161.243743 82.275187 160.100674 82.759119 159.160817 83.728936 C 158.222914 84.698754 157.694693 86.000746 157.580711 87.638819 L 167.168815 87.638819 Z M 167.168815 87.640122 " transform="matrix(5.997423,0,0,5.997423,0.000000768,-0.13438)"/></g><path style=" stroke:none;fill-rule:evenodd;fill:#ffffff;fill-opacity:1;" d="M 1054.359375 588.6875 L 1038.015625 588.6875 L 1038.015625 483.796875 L 1052.335938 483.796875 L 1052.335938 508.25 C 1057.382812 496.792969 1062.449219 489.375 1067.527344 485.988281 C 1072.609375 482.585938 1077.816406 480.890625 1083.148438 480.890625 C 1084.800781 480.890625 1086.949219 481.015625 1089.574219 481.265625 L 1089.574219 496.847656 L 1086.265625 496.847656 C 1077.28125 496.847656 1069.828125 500.1875 1063.894531 506.859375 C 1057.953125 513.527344 1054.777344 522.289062 1054.359375 533.15625 Z M 1054.359375 588.6875 "/><path style=" stroke:none;fill-rule:evenodd;fill:#ffffff;fill-opacity:1;" d="M 1054.359375 588.6875 L 1038.015625 588.6875 L 1038.015625 483.796875 L 1052.335938 483.796875 L 1052.335938 508.25 C 1057.382812 496.792969 1062.449219 489.375 1067.527344 485.988281 C 1072.609375 482.585938 1077.816406 480.890625 1083.148438 480.890625 C 1084.800781 480.890625 1086.949219 481.015625 1089.574219 481.265625 L 1089.574219 496.847656 L 1086.265625 496.847656 C 1077.28125 496.847656 1069.828125 500.1875 1063.894531 506.859375 C 1057.953125 513.527344 1054.777344 522.289062 1054.359375 533.15625 Z M 1054.359375 588.6875 "/><g clip-rule="nonzero" clip-path="url(#f69ecb0bb6)"><path style="fill:none;stroke-width:1;stroke-linecap:butt;stroke-linejoin:miter;stroke:#000000;stroke-opacity:1;stroke-miterlimit:4;" d="M 175.80208 98.179154 L 173.076951 98.179154 L 173.076951 80.689871 L 175.464696 80.689871 L 175.464696 84.767143 C 176.306203 82.856817 177.150967 81.619958 177.997685 81.055262 C 178.845054 80.487961 179.713266 80.205287 180.602319 80.205287 C 180.877828 80.205287 181.236055 80.22613 181.673743 80.267814 L 181.673743 82.865935 L 181.122074 82.865935 C 179.624035 82.865935 178.381313 83.422815 177.391956 84.535272 C 176.401296 85.647078 175.871772 87.107992 175.80208 88.919968 Z M 175.80208 98.179154 " transform="matrix(5.997423,0,0,5.997423,0.000000768,-0.13438)"/></g><path style=" stroke:none;fill-rule:evenodd;fill:#ffffff;fill-opacity:1;" d="M 1191.0625 483.796875 L 1154.851562 588.6875 L 1137.921875 588.6875 L 1100.496094 483.796875 L 1118.574219 483.796875 L 1147.683594 569.050781 L 1176.574219 483.796875 Z M 1191.0625 483.796875 "/><path style=" stroke:none;fill-rule:evenodd;fill:#ffffff;fill-opacity:1;" d="M 1191.0625 483.796875 L 1154.851562 588.6875 L 1137.921875 588.6875 L 1100.496094 483.796875 L 1118.574219 483.796875 L 1147.683594 569.050781 L 1176.574219 483.796875 Z M 1191.0625 483.796875 "/><g clip-rule="nonzero" clip-path="url(#2fb6a36cd3)"><path style="fill:none;stroke-width:1;stroke-linecap:butt;stroke-linejoin:miter;stroke:#000000;stroke-opacity:1;stroke-miterlimit:4;" d="M 198.595726 80.689871 L 192.557976 98.179154 L 189.735149 98.179154 L 183.494838 80.689871 L 186.509154 80.689871 L 191.362801 94.904961 L 196.179975 80.689871 Z M 198.595726 80.689871 " transform="matrix(5.997423,0,0,5.997423,0.000000768,-0.13438)"/></g><path style=" stroke:none;fill-rule:evenodd;fill:#ffffff;fill-opacity:1;" d="M 1204.125 447.070312 L 1221.609375 447.070312 L 1221.609375 465.183594 L 1204.125 465.183594 Z M 1204.886719 483.796875 L 1221.226562 483.796875 L 1221.226562 588.6875 L 1204.886719 588.6875 Z M 1204.886719 483.796875 "/><path style="fill-rule:evenodd;fill:#ffffff;fill-opacity:1;stroke-width:1;stroke-linecap:butt;stroke-linejoin:miter;stroke:#000000;stroke-opacity:1;stroke-miterlimit:4;" d="M 200.773745 74.566146 L 203.68906 74.566146 L 203.68906 77.586324 L 200.773745 77.586324 Z M 200.900752 80.689871 L 203.62523 80.689871 L 203.62523 98.179154 L 200.900752 98.179154 Z M 200.900752 80.689871 " transform="matrix(5.997423,0,0,5.997423,0.000000768,-0.13438)"/><path style=" stroke:none;fill-rule:evenodd;fill:#ffffff;fill-opacity:1;" d="M 1306.597656 551.953125 L 1321.285156 554.542969 C 1319.210938 566.136719 1314.609375 575.210938 1307.484375 581.765625 C 1300.359375 588.320312 1291.472656 591.601562 1280.820312 591.601562 C 1266.367188 591.601562 1255.34375 586.261719 1247.777344 575.589844 C 1240.207031 564.917969 1236.410156 551.890625 1236.410156 536.503906 C 1236.410156 520.5625 1240.410156 507.3125 1248.398438 496.738281 C 1256.382812 486.171875 1267.261719 480.890625 1281.027344 480.890625 C 1292.445312 480.890625 1301.589844 484.300781 1308.46875 491.136719 C 1315.359375 497.964844 1319.625 506.792969 1321.285156 517.605469 L 1306.59375 520.40625 C 1303.828125 503.101562 1295.46875 494.4375 1281.503906 494.4375 C 1272.519531 494.4375 1265.613281 498.257812 1260.777344 505.898438 C 1255.9375 513.546875 1253.519531 523.453125 1253.519531 535.621094 C 1253.519531 549.042969 1255.921875 559.460938 1260.71875 566.898438 C 1265.527344 574.328125 1272.28125 578.046875 1280.988281 578.046875 C 1294.460938 578.046875 1303 569.351562 1306.597656 551.957031 Z M 1306.597656 551.953125 "/><path style=" stroke:none;fill-rule:evenodd;fill:#ffffff;fill-opacity:1;" d="M 1306.597656 551.953125 L 1321.285156 554.542969 C 1319.210938 566.136719 1314.609375 575.210938 1307.484375 581.765625 C 1300.359375 588.320312 1291.472656 591.601562 1280.820312 591.601562 C 1266.367188 591.601562 1255.34375 586.261719 1247.777344 575.589844 C 1240.207031 564.917969 1236.410156 551.890625 1236.410156 536.503906 C 1236.410156 520.5625 1240.410156 507.3125 1248.398438 496.738281 C 1256.382812 486.171875 1267.261719 480.890625 1281.027344 480.890625 C 1292.445312 480.890625 1301.589844 484.300781 1308.46875 491.136719 C 1315.359375 497.964844 1319.625 506.792969 1321.285156 517.605469 L 1306.59375 520.40625 C 1303.828125 503.101562 1295.46875 494.4375 1281.503906 494.4375 C 1272.519531 494.4375 1265.613281 498.257812 1260.777344 505.898438 C 1255.9375 513.546875 1253.519531 523.453125 1253.519531 535.621094 C 1253.519531 549.042969 1255.921875 559.460938 1260.71875 566.898438 C 1265.527344 574.328125 1272.28125 578.046875 1280.988281 578.046875 C 1294.460938 578.046875 1303 569.351562 1306.597656 551.957031 Z M 1306.597656 551.953125 "/><g clip-rule="nonzero" clip-path="url(#1f43c1c12d)"><path style="fill:none;stroke-width:1;stroke-linecap:butt;stroke-linejoin:miter;stroke:#000000;stroke-opacity:1;stroke-miterlimit:4;" d="M 217.85986 92.054127 L 220.308829 92.485953 C 219.962977 94.419075 219.195721 95.932095 218.00771 97.025012 C 216.8197 98.11793 215.337944 98.66504 213.56179 98.66504 C 211.151901 98.66504 209.313872 97.774683 208.052262 95.995273 C 206.790001 94.215863 206.156917 92.043706 206.156917 89.478151 C 206.156917 86.820108 206.82387 84.610826 208.155822 82.847698 C 209.487123 81.085874 211.301053 80.205287 213.59631 80.205287 C 215.500123 80.205287 217.024866 80.773891 218.171843 81.913704 C 219.320774 83.052213 220.032017 84.5242 220.308829 86.327058 L 217.859209 86.794055 C 217.398073 83.908701 216.004246 82.46407 213.675771 82.46407 C 212.177732 82.46407 211.026196 83.101063 210.21986 84.375047 C 209.412872 85.650335 209.009705 87.302086 209.009705 89.330952 C 209.009705 91.568893 209.410267 93.305967 210.21009 94.546083 C 211.011867 95.784896 212.138001 96.404954 213.589797 96.404954 C 215.836205 96.404954 217.259993 94.955113 217.85986 92.054779 Z M 217.85986 92.054127 " transform="matrix(5.997423,0,0,5.997423,0.000000768,-0.13438)"/></g><path style=" stroke:none;fill-rule:evenodd;fill:#ffffff;fill-opacity:1;" d="M 1413.4375 557.398438 L 1428.632812 560.515625 C 1425.875 569.484375 1420.476562 576.914062 1412.464844 582.785156 C 1404.453125 588.664062 1395.011719 591.601562 1384.164062 591.601562 C 1369.851562 591.601562 1358.277344 586.5625 1349.433594 576.476562 C 1340.585938 566.398438 1336.164062 553.167969 1336.164062 536.816406 C 1336.164062 520.113281 1340.761719 506.617188 1349.960938 496.328125 C 1359.148438 486.035156 1370.691406 480.890625 1384.589844 480.890625 C 1398.261719 480.890625 1409.28125 485.625 1417.605469 495.101562 C 1425.941406 504.578125 1430.199219 518.757812 1430.410156 537.636719 L 1354.277344 537.636719 C 1354.277344 553.5 1357.59375 564.191406 1364.222656 569.742188 C 1370.859375 575.277344 1377.859375 578.046875 1385.261719 578.046875 C 1398.582031 578.046875 1407.980469 571.160156 1413.4375 557.398438 Z M 1412.550781 525.480469 C 1412.410156 519.601562 1411.4375 514.371094 1409.644531 509.800781 C 1407.847656 505.238281 1404.8125 501.347656 1400.53125 498.125 C 1396.246094 494.910156 1391.097656 493.304688 1385.085938 493.304688 C 1377.003906 493.304688 1370.148438 496.207031 1364.515625 502.023438 C 1358.890625 507.839844 1355.722656 515.648438 1355.039062 525.472656 L 1412.550781 525.472656 Z M 1412.550781 525.480469 "/><path style=" stroke:none;fill-rule:evenodd;fill:#ffffff;fill-opacity:1;" d="M 1413.4375 557.398438 L 1428.632812 560.515625 C 1425.875 569.484375 1420.476562 576.914062 1412.464844 582.785156 C 1404.453125 588.664062 1395.011719 591.601562 1384.164062 591.601562 C 1369.851562 591.601562 1358.277344 586.5625 1349.433594 576.476562 C 1340.585938 566.398438 1336.164062 553.167969 1336.164062 536.816406 C 1336.164062 520.113281 1340.761719 506.617188 1349.960938 496.328125 C 1359.148438 486.035156 1370.691406 480.890625 1384.589844 480.890625 C 1398.261719 480.890625 1409.28125 485.625 1417.605469 495.101562 C 1425.941406 504.578125 1430.199219 518.757812 1430.410156 537.636719 L 1354.277344 537.636719 C 1354.277344 553.5 1357.59375 564.191406 1364.222656 569.742188 C 1370.859375 575.277344 1377.859375 578.046875 1385.261719 578.046875 C 1398.582031 578.046875 1407.980469 571.160156 1413.4375 557.398438 Z M 1412.550781 525.480469 C 1412.410156 519.601562 1411.4375 514.371094 1409.644531 509.800781 C 1407.847656 505.238281 1404.8125 501.347656 1400.53125 498.125 C 1396.246094 494.910156 1391.097656 493.304688 1385.085938 493.304688 C 1377.003906 493.304688 1370.148438 496.207031 1364.515625 502.023438 C 1358.890625 507.839844 1355.722656 515.648438 1355.039062 525.472656 L 1412.550781 525.472656 Z M 1412.550781 525.480469 "/><g clip-rule="nonzero" clip-path="url(#7a16344272)"><path style="fill:none;stroke-width:1;stroke-linecap:butt;stroke-linejoin:miter;stroke:#000000;stroke-opacity:1;stroke-miterlimit:4;" d="M 235.674153 92.962069 L 238.207794 93.481824 C 237.747961 94.977258 236.847835 96.216071 235.511974 97.195007 C 234.176114 98.175246 232.60187 98.66504 230.79315 98.66504 C 228.406709 98.66504 226.476843 97.824835 225.002251 96.143123 C 223.527008 94.462714 222.789712 92.256688 222.789712 89.530257 C 222.789712 86.745206 223.556318 84.49489 225.09018 82.77931 C 226.622088 81.063078 228.546743 80.205287 230.864144 80.205287 C 233.14377 80.205287 234.981147 80.994689 236.369113 82.574795 C 237.759033 84.154901 238.468974 86.519197 238.504145 89.667034 L 225.80989 89.667034 C 225.80989 92.31205 226.362862 94.094717 227.468154 95.020245 C 228.57475 95.943168 229.741918 96.404954 230.976172 96.404954 C 233.197178 96.404954 234.764257 95.256675 235.674153 92.962069 Z M 235.526303 87.640122 C 235.502856 86.659883 235.340677 85.787764 235.04172 85.025717 C 234.742112 84.264974 234.236036 83.616258 233.522187 83.078918 C 232.807688 82.54288 231.949246 82.275187 230.946862 82.275187 C 229.599278 82.275187 228.456209 82.759119 227.517004 83.728936 C 226.579101 84.698754 226.050879 86.000746 225.936898 87.638819 L 235.526303 87.638819 Z M 235.526303 87.640122 " transform="matrix(5.997423,0,0,5.997423,0.000000768,-0.13438)"/></g><path style=" stroke:none;fill-rule:evenodd;fill:#ffffff;fill-opacity:1;" d="M 1439.632812 561.507812 L 1455.226562 558.285156 C 1458.679688 571.460938 1469.621094 578.046875 1488.039062 578.046875 C 1494.828125 578.046875 1500.574219 576.53125 1505.28125 573.488281 C 1509.988281 570.453125 1512.347656 566.171875 1512.347656 560.648438 C 1512.347656 552.433594 1506.355469 547.21875 1494.367188 545.011719 L 1472.277344 540.808594 C 1463.625 539.148438 1456.742188 535.890625 1451.621094 531.046875 C 1446.507812 526.199219 1443.945312 519.792969 1443.945312 511.828125 C 1443.945312 503.042969 1447.429688 495.683594 1454.421875 489.765625 C 1461.402344 483.84375 1470.808594 480.890625 1482.640625 480.890625 C 1505.394531 480.890625 1519.433594 489.78125 1524.761719 507.566406 L 1509.816406 510.78125 C 1505.527344 499.890625 1496.714844 494.4375 1483.378906 494.4375 C 1476.738281 494.4375 1471.292969 495.804688 1467.046875 498.519531 C 1462.789062 501.246094 1460.667969 505.046875 1460.667969 509.941406 C 1460.667969 517.648438 1466.101562 522.5 1476.96875 524.503906 L 1497.382812 528.261719 C 1518.757812 532.136719 1529.449219 542.511719 1529.449219 559.359375 C 1529.449219 568.992188 1525.472656 576.78125 1517.511719 582.699219 C 1509.550781 588.636719 1498.953125 591.601562 1485.734375 591.601562 C 1460.886719 591.601562 1445.515625 581.566406 1439.632812 561.507812 Z M 1439.632812 561.507812 "/><path style=" stroke:none;fill-rule:evenodd;fill:#ffffff;fill-opacity:1;" d="M 1439.632812 561.507812 L 1455.226562 558.285156 C 1458.679688 571.460938 1469.621094 578.046875 1488.039062 578.046875 C 1494.828125 578.046875 1500.574219 576.53125 1505.28125 573.488281 C 1509.988281 570.453125 1512.347656 566.171875 1512.347656 560.648438 C 1512.347656 552.433594 1506.355469 547.21875 1494.367188 545.011719 L 1472.277344 540.808594 C 1463.625 539.148438 1456.742188 535.890625 1451.621094 531.046875 C 1446.507812 526.199219 1443.945312 519.792969 1443.945312 511.828125 C 1443.945312 503.042969 1447.429688 495.683594 1454.421875 489.765625 C 1461.402344 483.84375 1470.808594 480.890625 1482.640625 480.890625 C 1505.394531 480.890625 1519.433594 489.78125 1524.761719 507.566406 L 1509.816406 510.78125 C 1505.527344 499.890625 1496.714844 494.4375 1483.378906 494.4375 C 1476.738281 494.4375 1471.292969 495.804688 1467.046875 498.519531 C 1462.789062 501.246094 1460.667969 505.046875 1460.667969 509.941406 C 1460.667969 517.648438 1466.101562 522.5 1476.96875 524.503906 L 1497.382812 528.261719 C 1518.757812 532.136719 1529.449219 542.511719 1529.449219 559.359375 C 1529.449219 568.992188 1525.472656 576.78125 1517.511719 582.699219 C 1509.550781 588.636719 1498.953125 591.601562 1485.734375 591.601562 C 1460.886719 591.601562 1445.515625 581.566406 1439.632812 561.507812 Z M 1439.632812 561.507812 "/><g clip-rule="nonzero" clip-path="url(#78ff380e61)"><path style="fill:none;stroke-width:1;stroke-linecap:butt;stroke-linejoin:miter;stroke:#000000;stroke-opacity:1;stroke-miterlimit:4;" d="M 240.041915 93.647259 L 242.64199 93.109919 C 243.217758 95.306827 245.04211 96.404954 248.11309 96.404954 C 249.245087 96.404954 250.203181 96.152242 250.988023 95.644862 C 251.772866 95.138786 252.166264 94.424937 252.166264 93.503969 C 252.166264 92.13424 251.167137 91.264726 249.168231 90.896729 L 245.485008 90.195907 C 244.042331 89.919095 242.894703 89.375893 242.040821 88.568255 C 241.188241 87.759965 240.760974 86.691798 240.760974 85.363753 C 240.760974 83.898931 241.341953 82.671842 242.507818 81.68509 C 243.671729 80.697686 245.240111 80.205287 247.212964 80.205287 C 251.006912 80.205287 253.347761 81.687695 254.236163 84.653162 L 251.744207 85.189199 C 251.029057 83.373315 249.559675 82.46407 247.336064 82.46407 C 246.228817 82.46407 245.320875 82.692033 244.612889 83.144701 C 243.902949 83.599323 243.549281 84.233059 243.549281 85.049165 C 243.549281 86.334222 244.455269 87.143163 246.267245 87.477291 L 249.671051 88.103863 C 253.235082 88.749973 255.017749 90.479883 255.017749 93.289033 C 255.017749 94.895191 254.354704 96.193926 253.027311 97.180678 C 251.699918 98.170687 249.932883 98.66504 247.728811 98.66504 C 243.585755 98.66504 241.022805 96.991795 240.041915 93.647259 Z M 240.041915 93.647259 " transform="matrix(5.997423,0,0,5.997423,0.000000768,-0.13438)"/></g><path style=" stroke:none;fill-rule:evenodd;fill:#ffffff;fill-opacity:1;" d="M 1071.320312 259.632812 L 1071.320312 234.441406 C 1071.308594 234.019531 1071.339844 233.601562 1071.414062 233.183594 C 1071.488281 232.769531 1071.605469 232.363281 1071.761719 231.972656 C 1071.917969 231.578125 1072.113281 231.207031 1072.34375 230.855469 C 1072.578125 230.5 1072.84375 230.175781 1073.140625 229.875 C 1073.441406 229.578125 1073.765625 229.3125 1074.117188 229.078125 C 1074.472656 228.847656 1074.84375 228.652344 1075.238281 228.496094 C 1075.628906 228.339844 1076.035156 228.222656 1076.449219 228.148438 C 1076.867188 228.074219 1077.285156 228.042969 1077.707031 228.054688 L 1190.625 228.042969 C 1194.242188 228.042969 1197.140625 230.671875 1197.144531 234.402344 L 1197.140625 256.015625 C 1197.109375 259.636719 1194.058594 264.371094 1188.636719 271.871094 L 1130.148438 355.386719 C 1151.859375 354.878906 1174.828125 358.128906 1194.554688 369.21875 C 1199.003906 371.710938 1200.191406 375.417969 1200.539062 379.050781 L 1200.539062 405.933594 C 1200.539062 409.640625 1196.492188 413.921875 1192.226562 411.691406 C 1157.472656 393.488281 1111.347656 391.492188 1072.921875 411.914062 C 1068.992188 414.011719 1064.882812 409.785156 1064.882812 406.078125 L 1064.882812 380.523438 C 1064.882812 376.433594 1064.957031 369.4375 1069.082031 363.203125 L 1136.851562 265.984375 L 1077.84375 265.976562 C 1074.242188 265.976562 1071.351562 263.398438 1071.324219 259.632812 M 667.214844 416.988281 L 632.855469 416.988281 C 629.585938 416.777344 626.976562 414.316406 626.710938 411.1875 L 626.738281 234.863281 C 626.738281 231.34375 629.707031 228.515625 633.363281 228.515625 L 665.355469 228.511719 C 668.707031 228.679688 671.394531 231.210938 671.601562 234.429688 L 671.601562 257.453125 L 672.25 257.453125 C 680.585938 235.191406 696.300781 224.800781 717.460938 224.800781 C 738.949219 224.800781 752.414062 235.191406 762.039062 257.453125 C 770.375 235.191406 789.289062 224.800781 809.496094 224.800781 C 823.925781 224.800781 839.640625 230.738281 849.257812 244.09375 C 860.164062 258.929688 857.917969 280.453125 857.917969 299.375 L 857.894531 410.640625 C 857.894531 414.167969 854.925781 416.992188 851.269531 416.992188 L 816.957031 416.992188 C 813.507812 416.769531 810.785156 414.035156 810.785156 410.660156 L 810.785156 317.183594 C 810.785156 309.765625 811.421875 291.214844 809.8125 284.167969 C 807.246094 272.292969 799.558594 268.953125 789.613281 268.953125 C 781.277344 268.953125 772.617188 274.519531 769.089844 283.421875 C 765.558594 292.328125 765.882812 307.167969 765.882812 317.1875 L 765.882812 410.640625 C 765.882812 414.167969 762.914062 416.992188 759.261719 416.992188 L 724.945312 416.992188 C 721.496094 416.769531 718.777344 414.035156 718.777344 410.660156 L 718.742188 317.183594 C 718.742188 297.523438 721.953125 268.582031 697.585938 268.582031 C 672.886719 268.582031 673.851562 296.78125 673.851562 317.183594 L 673.835938 410.640625 C 673.835938 414.167969 670.871094 416.992188 667.214844 416.992188 M 1280.097656 224.800781 C 1330.679688 224.800781 1358.039062 268.582031 1358.039062 324.234375 C 1358.039062 378.03125 1327.816406 420.703125 1280.097656 420.703125 C 1230.46875 420.703125 1203.425781 376.921875 1203.425781 322.382812 C 1203.425781 267.464844 1230.792969 224.804688 1280.097656 224.804688 Z M 1280.414062 265.328125 C 1255.277344 265.328125 1253.6875 299.832031 1253.6875 321.351562 C 1253.6875 342.871094 1253.371094 384.34375 1280.097656 384.34375 C 1306.503906 384.34375 1307.773438 351.777344 1307.773438 329.148438 C 1307.773438 314.304688 1307.144531 296.492188 1302.6875 282.398438 C 1298.863281 270.152344 1291.234375 265.328125 1280.414062 265.328125 Z M 1431.242188 416.988281 L 1397.023438 416.988281 C 1393.578125 416.769531 1390.855469 414.035156 1390.855469 410.660156 L 1390.796875 234.273438 C 1391.089844 231.046875 1393.9375 228.515625 1397.398438 228.515625 L 1429.265625 228.511719 C 1432.261719 228.660156 1434.738281 230.710938 1435.371094 233.449219 L 1435.371094 260.417969 L 1436.015625 260.417969 C 1445.636719 236.300781 1459.101562 224.800781 1482.832031 224.800781 C 1498.222656 224.800781 1513.300781 230.363281 1522.917969 245.582031 C 1531.898438 259.675781 1531.898438 283.421875 1531.898438 300.492188 L 1531.898438 411.433594 C 1531.515625 414.5625 1528.714844 416.992188 1525.320312 416.992188 L 1490.875 416.992188 C 1487.695312 416.78125 1485.128906 414.449219 1484.757812 411.433594 L 1484.757812 315.703125 C 1484.757812 296.40625 1487.007812 268.207031 1463.273438 268.207031 C 1454.925781 268.207031 1447.238281 273.773438 1443.394531 282.308594 C 1438.582031 293.066406 1437.9375 303.828125 1437.9375 315.703125 L 1437.9375 410.640625 C 1437.875 414.167969 1434.90625 416.992188 1431.242188 416.992188 M 985.195312 332.789062 C 985.195312 346.179688 985.519531 357.328125 978.78125 369.230469 C 973.308594 378.902344 964.632812 384.847656 954.988281 384.847656 C 941.816406 384.847656 934.105469 374.804688 934.105469 359.933594 C 934.105469 330.675781 960.347656 325.351562 985.203125 325.351562 L 985.203125 332.789062 Z M 1019.835938 416.546875 C 1017.558594 418.585938 1014.285156 418.726562 1011.71875 417.351562 C 1000.308594 407.863281 998.265625 403.480469 992.027344 394.453125 C 973.164062 413.667969 959.816406 419.425781 935.386719 419.425781 C 906.46875 419.425781 883.972656 401.578125 883.972656 365.882812 C 883.972656 337.996094 899.074219 319.03125 920.605469 309.734375 C 939.246094 301.554688 965.277344 300.066406 985.195312 297.835938 L 985.195312 293.375 C 985.195312 285.191406 985.84375 275.523438 981.023438 268.460938 C 976.847656 262.140625 968.8125 259.535156 961.742188 259.535156 C 948.636719 259.535156 936.988281 266.253906 934.128906 280.167969 C 933.535156 283.261719 931.273438 286.320312 928.160156 286.476562 L 894.863281 282.878906 C 892.050781 282.242188 888.925781 279.988281 889.734375 275.699219 C 897.386719 235.300781 933.871094 223.097656 966.5625 223.097656 C 983.269531 223.097656 1005.125 227.558594 1018.300781 240.199219 C 1035.011719 255.816406 1033.402344 276.640625 1033.402344 299.324219 L 1033.402344 352.84375 C 1033.402344 368.941406 1040.097656 376.007812 1046.375 384.683594 C 1048.566406 387.804688 1049.0625 391.519531 1046.257812 393.804688 C 1039.238281 399.683594 1026.777344 410.519531 1019.914062 416.625 Z M 538.75 332.789062 C 538.75 346.179688 539.074219 357.328125 532.324219 369.230469 C 526.863281 378.902344 518.183594 384.847656 508.539062 384.847656 C 495.363281 384.847656 487.65625 374.804688 487.65625 359.933594 C 487.65625 330.675781 513.902344 325.351562 538.75 325.351562 Z M 573.390625 416.546875 C 571.109375 418.585938 567.828125 418.726562 565.269531 417.351562 C 553.855469 407.863281 551.8125 403.480469 545.574219 394.453125 C 526.71875 413.667969 513.363281 419.425781 488.941406 419.425781 C 460.015625 419.425781 437.519531 401.578125 437.519531 365.882812 C 437.519531 337.996094 452.621094 319.03125 474.15625 309.734375 C 492.796875 301.554688 518.832031 300.066406 538.75 297.835938 L 538.75 293.375 C 538.75 285.191406 539.390625 275.523438 534.574219 268.460938 C 530.394531 262.140625 522.359375 259.535156 515.292969 259.535156 C 502.1875 259.535156 490.535156 266.253906 487.675781 280.167969 C 487.082031 283.261719 484.824219 286.320312 481.707031 286.476562 L 448.414062 282.878906 C 445.601562 282.242188 442.476562 279.988281 443.289062 275.699219 C 450.941406 235.300781 487.417969 223.097656 520.113281 223.097656 C 536.824219 223.097656 558.679688 227.558594 571.855469 240.199219 C 588.5625 255.816406 586.957031 276.640625 586.957031 299.324219 L 586.957031 352.84375 C 586.957031 368.941406 593.644531 376.007812 599.921875 384.683594 C 602.117188 387.804688 602.609375 391.519531 599.8125 393.804688 C 592.796875 399.683594 580.324219 410.519531 573.46875 416.625 Z M 573.390625 416.546875 "/></g></svg>