<svg xmlns="http://www.w3.org/2000/svg" xmlns:xlink="http://www.w3.org/1999/xlink" width="512" zoomAndPan="magnify" viewBox="0 0 384 77.999999" height="104" preserveAspectRatio="xMidYMid meet" version="1.2"><g id="964d14e2cb"><path style=" stroke:none;fill-rule:nonzero;fill:#ffffff;fill-opacity:1;" d="M 322.15625 0.03125 L 322.15625 12.378906 L 295.625 12.378906 L 295.625 77.324219 L 282.355469 77.324219 L 282.355469 12.378906 L 255.269531 12.378906 L 255.269531 0.03125 Z M 325.140625 69.960938 C 326.074219 69.960938 326.890625 70.296875 327.585938 70.972656 C 328.285156 71.644531 328.636719 72.449219 328.644531 73.390625 C 328.636719 74.027344 328.472656 74.613281 328.148438 75.132812 C 327.816406 75.667969 327.394531 76.082031 326.863281 76.382812 C 326.34375 76.695312 325.769531 76.851562 325.140625 76.851562 C 324.167969 76.851562 323.339844 76.515625 322.648438 75.84375 C 321.957031 75.171875 321.617188 74.355469 321.625 73.390625 C 321.617188 72.449219 321.957031 71.644531 322.648438 70.972656 C 323.339844 70.296875 324.167969 69.960938 325.140625 69.960938 Z M 62.1875 77.324219 L 13.265625 16.519531 L 13.265625 77.292969 L 0 77.292969 L 0 0 L 16.582031 0 L 78.386719 76.746094 L 78.386719 12.378906 L 78.382812 0.03125 L 145.269531 0.03125 L 145.269531 12.378906 L 91.65625 12.378906 L 91.65625 32.238281 L 134.769531 32.238281 L 134.769531 44.582031 L 91.65625 44.582031 L 91.65625 64.980469 L 145.269531 64.980469 L 145.269531 77.324219 Z M 187.789062 44.464844 L 196.484375 55.273438 L 178.667969 77.417969 L 161.253906 77.417969 Z M 178.667969 0.0664062 L 201.113281 27.941406 L 223.492188 0.148438 L 240.855469 0.125 L 209.808594 38.738281 L 240.90625 77.359375 L 223.492188 77.359375 L 161.304688 0.0664062 Z M 347.78125 44.292969 L 353.660156 44.292969 L 353.660156 66.941406 C 353.652344 69.023438 353.203125 70.804688 352.324219 72.300781 C 351.433594 73.796875 350.199219 74.941406 348.621094 75.746094 C 347.046875 76.542969 345.203125 76.949219 343.109375 76.949219 C 341.195312 76.949219 339.476562 76.605469 337.949219 75.933594 C 336.421875 75.257812 335.207031 74.25 334.316406 72.921875 C 333.417969 71.589844 332.976562 69.933594 332.976562 67.949219 L 338.867188 67.949219 C 338.875 68.820312 339.074219 69.570312 339.449219 70.199219 C 339.828125 70.828125 340.347656 71.308594 341.015625 71.644531 C 341.6875 71.980469 342.460938 72.148438 343.332031 72.148438 C 344.277344 72.148438 345.085938 71.953125 345.742188 71.554688 C 346.398438 71.167969 346.902344 70.582031 347.253906 69.800781 C 347.59375 69.03125 347.773438 68.074219 347.78125 66.941406 Z M 377.851562 53.148438 C 377.707031 51.777344 377.078125 50.703125 375.980469 49.941406 C 374.875 49.171875 373.445312 48.792969 371.695312 48.792969 C 370.460938 48.792969 369.402344 48.976562 368.519531 49.339844 C 367.640625 49.714844 366.957031 50.207031 366.488281 50.835938 C 366.023438 51.464844 365.789062 52.183594 365.769531 52.992188 C 365.769531 53.664062 365.929688 54.25 366.246094 54.734375 C 366.5625 55.230469 366.984375 55.648438 367.53125 55.984375 C 368.070312 56.328125 368.671875 56.613281 369.328125 56.84375 C 369.996094 57.074219 370.660156 57.269531 371.324219 57.429688 L 374.390625 58.179688 C 375.621094 58.464844 376.816406 58.84375 377.960938 59.332031 C 379.101562 59.8125 380.132812 60.421875 381.042969 61.15625 C 381.949219 61.890625 382.667969 62.777344 383.199219 63.816406 C 383.730469 64.851562 384 66.0625 384 67.464844 C 384 69.351562 383.515625 71.007812 382.535156 72.441406 C 381.554688 73.867188 380.144531 74.984375 378.292969 75.789062 C 376.449219 76.585938 374.21875 76.996094 371.59375 76.996094 C 369.058594 76.996094 366.847656 76.605469 364.988281 75.824219 C 363.117188 75.054688 361.660156 73.921875 360.609375 72.433594 C 359.558594 70.945312 358.992188 69.128906 358.910156 66.996094 L 364.738281 66.996094 C 364.816406 68.109375 365.175781 69.039062 365.789062 69.792969 C 366.40625 70.539062 367.21875 71.085938 368.207031 71.457031 C 369.203125 71.820312 370.316406 72.007812 371.550781 72.007812 C 372.835938 72.007812 373.96875 71.8125 374.949219 71.433594 C 375.917969 71.050781 376.683594 70.519531 377.230469 69.828125 C 377.789062 69.148438 378.066406 68.339844 378.078125 67.417969 C 378.066406 66.578125 377.816406 65.878906 377.328125 65.328125 C 376.835938 64.78125 376.152344 64.320312 375.28125 63.949219 C 374.398438 63.574219 373.375 63.238281 372.207031 62.945312 L 368.484375 62.007812 C 365.796875 61.324219 363.667969 60.289062 362.109375 58.898438 C 360.546875 57.507812 359.773438 55.664062 359.773438 53.351562 C 359.773438 51.457031 360.296875 49.792969 361.347656 48.367188 C 362.390625 46.941406 363.820312 45.832031 365.625 45.042969 C 367.441406 44.246094 369.492188 43.859375 371.773438 43.859375 C 374.09375 43.859375 376.125 44.246094 377.878906 45.042969 C 379.628906 45.832031 381.007812 46.929688 382.003906 48.332031 C 383.003906 49.730469 383.523438 51.332031 383.550781 53.148438 Z M 377.851562 53.148438 "/></g></svg>